<svg height="2206" width="720" xmlns="http://www.w3.org/2000/svg">
<rect height="2206" fill="#555" width="720"></rect>
<text fill="#7f7" font-family="Courier New" font-size="12" xml:space="preserve">
<tspan x="10" y="26">74 megabytes installed</tspan>
<tspan x="10" y="42"></tspan>
<tspan x="10" y="58">node_modules</tspan>
<tspan x="10" y="74">└─┬ phantom-render-stream@2.2.0 </tspan>
<tspan x="10" y="90">  ├── after-all@2.0.2 </tspan>
<tspan x="10" y="106">  ├─┬ concat-stream@1.6.0 </tspan>
<tspan x="10" y="122">  │ ├── inherits@2.0.3 </tspan>
<tspan x="10" y="138">  │ ├─┬ readable-stream@2.2.9 </tspan>
<tspan x="10" y="154">  │ │ ├── buffer-shims@1.0.0 </tspan>
<tspan x="10" y="170">  │ │ ├── core-util-is@1.0.2 </tspan>
<tspan x="10" y="186">  │ │ ├── isarray@1.0.0 </tspan>
<tspan x="10" y="202">  │ │ ├── process-nextick-args@1.0.7 </tspan>
<tspan x="10" y="218">  │ │ ├── string_decoder@1.0.0 </tspan>
<tspan x="10" y="234">  │ │ └── util-deprecate@1.0.2 </tspan>
<tspan x="10" y="250">  │ └── typedarray@0.0.6 </tspan>
<tspan x="10" y="266">  ├─┬ debug@2.6.4 </tspan>
<tspan x="10" y="282">  │ └── ms@0.7.3 </tspan>
<tspan x="10" y="298">  ├─┬ debug-stream@3.0.1 </tspan>
<tspan x="10" y="314">  │ └── through2@2.0.3 </tspan>
<tspan x="10" y="330">  ├─┬ duplexify@3.5.0 </tspan>
<tspan x="10" y="346">  │ ├─┬ end-of-stream@1.0.0 </tspan>
<tspan x="10" y="362">  │ │ └── once@1.3.3 </tspan>
<tspan x="10" y="378">  │ └── stream-shift@1.0.0 </tspan>
<tspan x="10" y="394">  ├─┬ end-of-stream@1.1.0 </tspan>
<tspan x="10" y="410">  │ └── once@1.3.3 </tspan>
<tspan x="10" y="426">  ├─┬ fwd-stream@1.0.4 </tspan>
<tspan x="10" y="442">  │ └─┬ readable-stream@1.0.34 </tspan>
<tspan x="10" y="458">  │   ├── isarray@0.0.1 </tspan>
<tspan x="10" y="474">  │   └── string_decoder@0.10.31 </tspan>
<tspan x="10" y="490">  ├── hat@0.0.3 </tspan>
<tspan x="10" y="506">  ├─┬ ldjson-stream@1.2.1 </tspan>
<tspan x="10" y="522">  │ ├─┬ split2@0.2.1 </tspan>
<tspan x="10" y="538">  │ │ └─┬ through2@0.6.5 </tspan>
<tspan x="10" y="554">  │ │   └─┬ readable-stream@1.0.34 </tspan>
<tspan x="10" y="570">  │ │     ├── isarray@0.0.1 </tspan>
<tspan x="10" y="586">  │ │     └── string_decoder@0.10.31 </tspan>
<tspan x="10" y="602">  │ └─┬ through2@0.6.5 </tspan>
<tspan x="10" y="618">  │   └─┬ readable-stream@1.0.34 </tspan>
<tspan x="10" y="634">  │     ├── isarray@0.0.1 </tspan>
<tspan x="10" y="650">  │     └── string_decoder@0.10.31 </tspan>
<tspan x="10" y="666">  ├─┬ lru-cache@4.0.2 </tspan>
<tspan x="10" y="682">  │ ├── pseudomap@1.0.2 </tspan>
<tspan x="10" y="698">  │ └── yallist@2.1.2 </tspan>
<tspan x="10" y="714">  ├─┬ mkdirp@0.5.1 </tspan>
<tspan x="10" y="730">  │ └── minimist@0.0.8 </tspan>
<tspan x="10" y="746">  ├─┬ once@1.4.0 </tspan>
<tspan x="10" y="762">  │ └── wrappy@1.0.2 </tspan>
<tspan x="10" y="778">  ├─┬ phantomjs-prebuilt@2.1.14 </tspan>
<tspan x="10" y="794">  │ ├── es6-promise@4.0.5 </tspan>
<tspan x="10" y="810">  │ ├─┬ extract-zip@1.5.0 </tspan>
<tspan x="10" y="826">  │ │ ├─┬ concat-stream@1.5.0 </tspan>
<tspan x="10" y="842">  │ │ │ └─┬ readable-stream@2.0.6 </tspan>
<tspan x="10" y="858">  │ │ │   └── string_decoder@0.10.31 </tspan>
<tspan x="10" y="874">  │ │ ├── debug@0.7.4 </tspan>
<tspan x="10" y="890">  │ │ ├── mkdirp@0.5.0 </tspan>
<tspan x="10" y="906">  │ │ └─┬ yauzl@2.4.1 </tspan>
<tspan x="10" y="922">  │ │   └─┬ fd-slicer@1.0.1 </tspan>
<tspan x="10" y="938">  │ │     └── pend@1.2.0 </tspan>
<tspan x="10" y="954">  │ ├─┬ fs-extra@1.0.0 </tspan>
<tspan x="10" y="970">  │ │ ├── graceful-fs@4.1.11 </tspan>
<tspan x="10" y="986">  │ │ ├── jsonfile@2.4.0 </tspan>
<tspan x="10" y="1002">  │ │ └── klaw@1.3.1 </tspan>
<tspan x="10" y="1018">  │ ├─┬ hasha@2.2.0 </tspan>
<tspan x="10" y="1034">  │ │ ├── is-stream@1.1.0 </tspan>
<tspan x="10" y="1050">  │ │ └─┬ pinkie-promise@2.0.1 </tspan>
<tspan x="10" y="1066">  │ │   └── pinkie@2.0.4 </tspan>
<tspan x="10" y="1082">  │ ├── kew@0.7.0 </tspan>
<tspan x="10" y="1098">  │ ├── progress@1.1.8 </tspan>
<tspan x="10" y="1114">  │ ├─┬ request@2.79.0 </tspan>
<tspan x="10" y="1130">  │ │ ├── aws-sign2@0.6.0 </tspan>
<tspan x="10" y="1146">  │ │ ├── aws4@1.6.0 </tspan>
<tspan x="10" y="1162">  │ │ ├── caseless@0.11.0 </tspan>
<tspan x="10" y="1178">  │ │ ├─┬ combined-stream@1.0.5 </tspan>
<tspan x="10" y="1194">  │ │ │ └── delayed-stream@1.0.0 </tspan>
<tspan x="10" y="1210">  │ │ ├── extend@3.0.0 </tspan>
<tspan x="10" y="1226">  │ │ ├── forever-agent@0.6.1 </tspan>
<tspan x="10" y="1242">  │ │ ├─┬ form-data@2.1.4 </tspan>
<tspan x="10" y="1258">  │ │ │ └── asynckit@0.4.0 </tspan>
<tspan x="10" y="1274">  │ │ ├─┬ har-validator@2.0.6 </tspan>
<tspan x="10" y="1290">  │ │ │ ├─┬ chalk@1.1.3 </tspan>
<tspan x="10" y="1306">  │ │ │ │ ├── ansi-styles@2.2.1 </tspan>
<tspan x="10" y="1322">  │ │ │ │ ├── escape-string-regexp@1.0.5 </tspan>
<tspan x="10" y="1338">  │ │ │ │ ├─┬ has-ansi@2.0.0 </tspan>
<tspan x="10" y="1354">  │ │ │ │ │ └── ansi-regex@2.1.1 </tspan>
<tspan x="10" y="1370">  │ │ │ │ ├── strip-ansi@3.0.1 </tspan>
<tspan x="10" y="1386">  │ │ │ │ └── supports-color@2.0.0 </tspan>
<tspan x="10" y="1402">  │ │ │ ├─┬ commander@2.9.0 </tspan>
<tspan x="10" y="1418">  │ │ │ │ └── graceful-readlink@1.0.1 </tspan>
<tspan x="10" y="1434">  │ │ │ └─┬ is-my-json-valid@2.16.0 </tspan>
<tspan x="10" y="1450">  │ │ │   ├── generate-function@2.0.0 </tspan>
<tspan x="10" y="1466">  │ │ │   ├─┬ generate-object-property@1.2.0 </tspan>
<tspan x="10" y="1482">  │ │ │   │ └── is-property@1.0.2 </tspan>
<tspan x="10" y="1498">  │ │ │   └── jsonpointer@4.0.1 </tspan>
<tspan x="10" y="1514">  │ │ ├─┬ hawk@3.1.3 </tspan>
<tspan x="10" y="1530">  │ │ │ ├── boom@2.10.1 </tspan>
<tspan x="10" y="1546">  │ │ │ ├── cryptiles@2.0.5 </tspan>
<tspan x="10" y="1562">  │ │ │ ├── hoek@2.16.3 </tspan>
<tspan x="10" y="1578">  │ │ │ └── sntp@1.0.9 </tspan>
<tspan x="10" y="1594">  │ │ ├─┬ http-signature@1.1.1 </tspan>
<tspan x="10" y="1610">  │ │ │ ├── assert-plus@0.2.0 </tspan>
<tspan x="10" y="1626">  │ │ │ ├─┬ jsprim@1.4.0 </tspan>
<tspan x="10" y="1642">  │ │ │ │ ├── assert-plus@1.0.0 </tspan>
<tspan x="10" y="1658">  │ │ │ │ ├── extsprintf@1.0.2 </tspan>
<tspan x="10" y="1674">  │ │ │ │ ├── json-schema@0.2.3 </tspan>
<tspan x="10" y="1690">  │ │ │ │ └── verror@1.3.6 </tspan>
<tspan x="10" y="1706">  │ │ │ └─┬ sshpk@1.13.0 </tspan>
<tspan x="10" y="1722">  │ │ │   ├── asn1@0.2.3 </tspan>
<tspan x="10" y="1738">  │ │ │   ├── assert-plus@1.0.0 </tspan>
<tspan x="10" y="1754">  │ │ │   ├── bcrypt-pbkdf@1.0.1 </tspan>
<tspan x="10" y="1770">  │ │ │   ├─┬ dashdash@1.14.1 </tspan>
<tspan x="10" y="1786">  │ │ │   │ └── assert-plus@1.0.0 </tspan>
<tspan x="10" y="1802">  │ │ │   ├── ecc-jsbn@0.1.1 </tspan>
<tspan x="10" y="1818">  │ │ │   ├─┬ getpass@0.1.6 </tspan>
<tspan x="10" y="1834">  │ │ │   │ └── assert-plus@1.0.0 </tspan>
<tspan x="10" y="1850">  │ │ │   ├── jodid25519@1.0.2 </tspan>
<tspan x="10" y="1866">  │ │ │   ├── jsbn@0.1.1 </tspan>
<tspan x="10" y="1882">  │ │ │   └── tweetnacl@0.14.5 </tspan>
<tspan x="10" y="1898">  │ │ ├── is-typedarray@1.0.0 </tspan>
<tspan x="10" y="1914">  │ │ ├── isstream@0.1.2 </tspan>
<tspan x="10" y="1930">  │ │ ├── json-stringify-safe@5.0.1 </tspan>
<tspan x="10" y="1946">  │ │ ├─┬ mime-types@2.1.15 </tspan>
<tspan x="10" y="1962">  │ │ │ └── mime-db@1.27.0 </tspan>
<tspan x="10" y="1978">  │ │ ├── oauth-sign@0.8.2 </tspan>
<tspan x="10" y="1994">  │ │ ├── qs@6.3.2 </tspan>
<tspan x="10" y="2010">  │ │ ├── stringstream@0.0.5 </tspan>
<tspan x="10" y="2026">  │ │ ├─┬ tough-cookie@2.3.2 </tspan>
<tspan x="10" y="2042">  │ │ │ └── punycode@1.4.1 </tspan>
<tspan x="10" y="2058">  │ │ ├── tunnel-agent@0.4.3 </tspan>
<tspan x="10" y="2074">  │ │ └── uuid@3.0.1 </tspan>
<tspan x="10" y="2090">  │ ├─┬ request-progress@2.0.1 </tspan>
<tspan x="10" y="2106">  │ │ └── throttleit@1.0.0 </tspan>
<tspan x="10" y="2122">  │ └─┬ which@1.2.14 </tspan>
<tspan x="10" y="2138">  │   └── isexe@2.0.0 </tspan>
<tspan x="10" y="2154">  ├── server-destroy@1.0.1 </tspan>
<tspan x="10" y="2170">  ├── thunky@1.0.2 </tspan>
<tspan x="10" y="2186">  └── xtend@4.0.1</tspan>
</text>
</svg>
